<?xml version="1.0" encoding="UTF-8"?>
<svg xmlns="http://www.w3.org/2000/svg"
     viewBox="441.8 144.8 508.5 439.8"
     width="508" height="439">
  <path d="M0 0 C0.69 0.328 1.379 0.656 2.09 0.994 C4.324 2.061 6.551 3.144 8.777 4.227 C10.32 4.967 11.862 5.705 13.406 6.443 C16.457 7.904 19.505 9.371 22.55 10.843 C26.952 12.969 31.371 15.061 35.792 17.147 C43.212 20.654 50.577 24.256 57.903 27.955 C62.636 30.337 67.413 32.611 72.215 34.852 C79.606 38.305 86.909 41.908 94.193 45.581 C108.811 52.949 123.432 60.298 138.221 67.318 C147.014 71.498 155.765 75.762 164.514 80.032 C209.128 101.804 209.128 101.804 228.281 110.377 C229.227 110.804 230.174 111.232 231.148 111.672 C231.984 112.046 232.82 112.42 233.681 112.805 C235.715 113.852 235.715 113.852 237.715 115.852 C238.009 118.336 238.009 118.336 238.069 121.507 C238.082 122.1 238.082 122.1 238.147 125.098 C238.161 126.384 238.176 127.671 238.191 128.996 C238.208 130.313 238.224 131.63 238.24 132.987 C238.27 135.779 238.29 138.571 238.305 141.363 C238.327 144.935 238.396 148.504 238.476 152.075 C238.54 155.486 238.549 158.897 238.566 162.309 C238.601 163.589 238.636 164.869 238.673 166.188 C238.63 174.847 238.63 174.847 235.999 177.735 C233.94 179.047 231.989 179.975 229.715 180.852 C228.56 181.45 227.405 182.048 226.215 182.664 C225.39 183.056 224.565 183.448 223.715 183.852 C226.863 186.475 230.227 188.156 233.91 189.887 C235.715 190.852 235.715 190.852 237.715 192.852 C238.009 195.488 238.009 195.488 238.069 198.874 C238.082 199.507 238.082 199.507 238.147 202.708 C238.163 204.095 238.178 205.483 238.191 206.871 C238.195 207.22 238.195 207.22 238.216 208.986 C238.258 212.681 238.286 216.376 238.305 220.072 C238.327 223.886 238.396 227.698 238.476 231.511 C238.528 234.446 238.545 237.38 238.552 240.315 C238.561 241.721 238.585 243.126 238.622 244.532 C238.894 255.52 238.894 255.52 235.999 258.789 C233.936 260.104 232.004 261.003 229.715 261.852 C228.56 262.45 227.405 263.048 226.215 263.664 C225.39 264.056 224.565 264.448 223.715 264.852 C226.491 267.024 229.3 268.805 232.402 270.477 C236.615 272.752 236.615 272.752 237.715 273.852 C237.856 275.782 237.927 277.718 237.971 279.653 C238 280.895 238.029 282.137 238.059 283.416 C238.149 288.366 238.216 293.315 238.263 298.265 C238.299 302.024 238.352 305.78 238.449 309.537 C238.542 313.17 238.59 316.8 238.608 320.434 C238.622 321.816 238.651 323.199 238.697 324.58 C239.035 335.33 239.035 335.33 235.902 338.941 C233.574 340.539 231.298 341.717 228.715 342.852 C227.509 343.499 226.305 344.15 225.103 344.805 C223.919 345.38 222.735 345.955 221.516 346.547 C220.118 347.232 218.72 347.917 217.323 348.603 C216.581 348.964 215.84 349.325 215.076 349.697 C210.769 351.803 206.484 353.952 202.195 356.094 C200.329 357.025 198.462 357.956 196.596 358.887 C196.127 359.121 196.127 359.121 193.753 360.305 C191.858 361.25 189.963 362.194 188.068 363.137 C178.438 367.931 168.83 372.753 159.328 377.797 C147.207 384.228 134.901 390.289 122.612 396.393 C109.222 403.047 95.909 409.817 82.715 416.852 C81.313 417.598 79.91 418.344 78.508 419.09 C76.268 420.282 74.03 421.476 71.793 422.672 C66.813 424.58 63.1 424.431 58.173 422.37 C56.925 421.698 55.685 421.01 54.453 420.309 C53.781 419.943 53.109 419.578 52.417 419.201 C50.279 418.036 48.153 416.851 46.027 415.664 C20.89 401.765 20.89 401.765 9.402 400.039 C8.657 399.924 7.911 399.81 7.142 399.691 C-16.903 396.388 -37.218 400.11 -58.285 411.852 C-59.88 412.729 -61.475 413.607 -63.07 414.484 C-66.164 416.192 -69.247 417.916 -72.324 419.652 C-73.004 420.03 -73.684 420.407 -74.384 420.795 C-76.073 421.734 -77.754 422.688 -79.434 423.645 C-83.798 425.492 -86.956 425.385 -91.359 423.617 C-92.434 423.046 -93.509 422.475 -94.617 421.887 C-95.206 421.578 -95.796 421.269 -96.403 420.951 C-98.307 419.95 -100.202 418.932 -102.098 417.914 C-103.413 417.219 -104.729 416.525 -106.046 415.832 C-109.8 413.852 -113.543 411.853 -117.285 409.852 C-118.993 408.944 -120.701 408.038 -122.41 407.133 C-122.729 406.964 -122.729 406.964 -124.344 406.107 C-124.716 405.911 -124.716 405.911 -126.598 404.914 C-127.165 404.612 -127.733 404.31 -128.317 403.998 C-132.649 401.698 -137.01 399.461 -141.402 397.277 C-142.079 396.94 -142.756 396.602 -143.453 396.255 C-145.73 395.119 -148.008 393.985 -150.285 392.852 C-156.607 389.702 -162.928 386.551 -169.247 383.398 C-171.142 382.453 -173.037 381.509 -174.932 380.566 C-185.464 375.323 -195.947 370.011 -206.341 364.499 C-215.585 359.609 -224.965 354.993 -234.344 350.37 C-236.664 349.225 -238.98 348.076 -241.297 346.926 C-241.64 346.758 -241.64 346.758 -243.377 345.906 C-256.529 339.364 -256.529 339.364 -258.285 335.852 C-258.402 333.933 -258.455 332.01 -258.478 330.088 C-258.494 328.88 -258.51 327.672 -258.527 326.427 C-258.571 320.904 -258.613 315.381 -258.635 309.858 C-258.652 306.217 -258.697 302.577 -258.748 298.937 C-258.781 296.137 -258.793 293.337 -258.798 290.536 C-258.808 288.542 -258.843 286.548 -258.877 284.554 C-258.874 283.339 -258.872 282.125 -258.869 280.874 C-258.877 279.805 -258.885 278.736 -258.893 277.635 C-258.075 273.89 -256.426 272.909 -253.285 270.852 C-251.117 269.586 -251.117 269.586 -249.098 268.602 C-248.761 268.434 -248.761 268.434 -247.055 267.586 C-245.285 266.852 -245.285 266.852 -243.285 266.852 C-243.285 266.192 -243.285 265.532 -243.285 264.852 C-243.698 264.738 -243.698 264.738 -245.785 264.164 C-250.204 262.507 -256.079 260.264 -258.285 255.852 C-258.417 253.877 -258.486 251.899 -258.526 249.921 C-258.551 248.676 -258.577 247.431 -258.604 246.148 C-258.693 240.452 -258.754 234.755 -258.8 229.059 C-258.827 226.05 -258.876 223.043 -258.944 220.035 C-259.026 216.402 -259.068 212.77 -259.083 209.136 C-259.095 207.752 -259.121 206.369 -259.162 204.986 C-259.46 194.171 -259.46 194.171 -256.572 190.927 C-254.509 189.613 -252.572 188.707 -250.285 187.852 C-249.13 187.253 -247.975 186.655 -246.785 186.039 C-246.373 185.843 -246.373 185.843 -244.285 184.852 C-247.871 181.826 -251.614 179.331 -255.613 176.902 C-257.285 175.852 -257.285 175.852 -258.285 174.852 C-258.421 173.038 -258.487 171.219 -258.526 169.401 C-258.551 168.236 -258.577 167.071 -258.604 165.871 C-258.688 160.529 -258.754 155.186 -258.8 149.843 C-258.827 147.022 -258.875 144.202 -258.944 141.381 C-259.041 137.324 -259.074 133.269 -259.102 129.211 C-259.14 127.949 -259.178 126.688 -259.217 125.388 C-259.198 116.895 -259.198 116.895 -256.702 114.042 C-254.616 112.698 -252.591 111.761 -250.285 110.852 C-249.09 110.239 -247.899 109.619 -246.713 108.99 C-245.509 108.405 -244.302 107.825 -243.094 107.25 C-242.435 106.932 -241.776 106.614 -241.098 106.286 C-238.975 105.261 -236.849 104.244 -234.723 103.227 C-233.236 102.511 -231.749 101.795 -230.262 101.079 C-227.302 99.655 -224.341 98.233 -221.379 96.814 C-217.866 95.131 -214.356 93.44 -210.848 91.746 C-200.215 86.623 -189.52 81.657 -178.778 76.767 C-172.529 73.911 -166.353 70.952 -160.229 67.839 C-154.792 65.081 -149.296 62.459 -143.785 59.852 C-134.27 55.344 -124.847 50.675 -115.452 45.925 C-104.742 40.515 -93.941 35.305 -83.117 30.125 C-76.611 27.011 -70.114 23.877 -63.62 20.738 C-53.595 15.894 -43.568 11.054 -33.535 6.227 C-33.033 5.984 -33.033 5.984 -30.49 4.758 C-28.623 3.86 -26.753 2.968 -24.881 2.081 C-23.181 1.276 -21.487 0.459 -19.799 -0.37 C-19.026 -0.738 -18.253 -1.106 -17.457 -1.484 C-17.125 -1.646 -17.125 -1.646 -15.444 -2.462 C-9.625 -4.311 -5.247 -2.584 0 0 Z " fill="#1E3A5C" transform="translate(706.3,154.1)"/>
  <path d="M0 0 C0.914 0.447 1.828 0.893 2.77 1.353 C3.288 1.604 3.288 1.604 5.911 2.875 C6.981 3.403 8.05 3.93 9.153 4.474 C9.668 4.725 9.668 4.725 12.278 5.992 C18.112 8.834 23.918 11.73 29.719 14.638 C39.892 19.737 50.117 24.729 60.34 29.724 C61.334 30.21 62.328 30.696 63.352 31.197 C75.298 37.036 87.255 42.85 99.265 48.558 C104.889 51.234 110.467 53.99 116.027 56.795 C126.366 61.992 136.838 66.922 147.278 71.912 C151.633 73.994 155.987 76.077 160.34 78.162 C161.301 78.62 162.262 79.079 163.252 79.552 C168.842 82.228 174.397 84.967 179.934 87.752 C185.599 90.599 191.295 93.371 197.024 96.088 C198.471 96.777 199.919 97.466 201.366 98.156 C203.569 99.205 205.773 100.252 207.982 101.289 C210.167 102.317 212.346 103.357 214.524 104.4 C215.19 104.71 215.857 105.019 216.544 105.338 C218.161 106.119 219.726 107.008 221.278 107.912 C221.608 108.902 221.938 109.892 222.278 110.912 C211.534 116.36 200.702 121.617 189.848 126.841 C182.19 130.527 174.55 134.241 166.967 138.078 C161.636 140.763 156.24 143.304 150.84 145.849 C144.442 148.869 138.128 151.988 131.903 155.349 C124.299 159.454 116.541 163.188 108.733 166.887 C103.048 169.582 97.394 172.325 91.778 175.162 C89.28 176.415 86.779 177.664 84.278 178.912 C83.943 179.08 83.943 179.08 82.246 179.929 C80.221 180.937 78.188 181.926 76.153 182.912 C75.564 183.201 75.564 183.201 72.583 184.662 C68.382 186.251 65.537 186.842 61.286 185.092 C58.949 183.932 56.677 182.689 54.403 181.412 C52.704 180.489 51.005 179.567 49.305 178.646 C48.459 178.184 47.614 177.722 46.742 177.246 C40.674 173.961 34.49 170.914 28.278 167.912 C27.687 167.622 27.687 167.622 24.7 166.154 C6.981 157.931 -14.342 157.21 -32.722 163.912 C-37.31 165.905 -41.703 168.175 -46.114 170.528 C-51.181 173.216 -56.279 175.842 -61.391 178.442 C-63.255 179.396 -65.109 180.367 -66.963 181.339 C-68.123 181.93 -69.282 182.522 -70.476 183.131 C-71.511 183.666 -72.545 184.202 -73.611 184.754 C-78.645 186.628 -82.4 186.448 -87.343 184.443 C-88.623 183.78 -89.895 183.102 -91.16 182.412 C-92.587 181.667 -94.014 180.922 -95.441 180.177 C-96.159 179.797 -96.877 179.416 -97.617 179.023 C-100.775 177.356 -103.965 175.756 -107.16 174.162 C-107.796 173.843 -108.432 173.524 -109.087 173.195 C-115.43 170.027 -121.826 166.971 -128.222 163.912 C-137.148 159.642 -146.036 155.309 -154.867 150.847 C-157.476 149.532 -160.089 148.226 -162.703 146.921 C-164.708 145.919 -166.713 144.915 -168.718 143.912 C-171.395 142.573 -174.075 141.24 -176.757 139.912 C-183.156 136.737 -189.508 133.51 -195.785 130.099 C-203.223 126.064 -210.855 122.448 -218.515 118.856 C-224.385 116.09 -230.096 113.146 -235.722 109.912 C-235.722 109.252 -235.722 108.592 -235.722 107.912 C-234.548 107.367 -233.373 106.821 -232.164 106.26 C-223.973 102.431 -215.862 98.528 -207.91 94.224 C-201.797 90.924 -195.616 88.076 -189.195 85.412 C-185.59 83.855 -182.092 82.135 -178.597 80.349 C-171.063 76.506 -163.403 72.952 -155.722 69.412 C-147.763 65.74 -139.827 62.045 -132.011 58.073 C-125.272 54.657 -118.465 51.381 -111.66 48.099 C-111.033 47.797 -110.406 47.494 -109.76 47.183 C-103.294 44.063 -96.823 40.954 -90.335 37.881 C-81.014 33.461 -71.795 28.954 -62.721 24.046 C-57.483 21.241 -52.135 18.828 -46.67 16.502 C-41.938 14.478 -37.318 12.29 -32.722 9.974 C-32.069 9.647 -31.417 9.32 -30.744 8.982 C-27.263 7.227 -23.809 5.429 -20.371 3.592 C-20.013 3.404 -20.013 3.404 -18.203 2.455 C-16.836 1.737 -15.476 1.007 -14.125 0.262 C-8.812 -2.506 -5.477 -2.189 0 0 Z " fill="#346294" transform="translate(702.7,162.1)"/>
  <path d="M0 0 C3.981 0.995 7.259 2.52 10.875 4.375 C12.31 5.102 13.745 5.828 15.18 6.555 C15.953 6.948 16.726 7.34 17.522 7.745 C22.005 10.016 26.504 12.255 31 14.5 C32.729 15.364 34.458 16.229 36.188 17.094 C37.057 17.529 37.927 17.964 38.823 18.412 C40.97 19.485 43.116 20.558 45.263 21.632 C54.067 26.035 62.873 30.434 71.681 34.83 C80.285 39.125 88.889 43.422 97.492 47.72 C103.255 50.599 109.018 53.477 114.782 56.354 C120.397 59.156 126.011 61.96 131.625 64.765 C133.757 65.83 135.89 66.895 138.023 67.958 C140.988 69.438 143.953 70.919 146.917 72.402 C147.798 72.84 148.678 73.279 149.585 73.73 C150.391 74.134 151.196 74.537 152.026 74.953 C152.726 75.302 153.425 75.651 154.145 76.011 C156 77 156 77 159 79 C159.361 81.063 159.361 81.063 159.341 83.633 C159.34 84.594 159.34 85.555 159.34 86.545 C159.324 87.585 159.309 88.624 159.293 89.695 C159.289 90.758 159.284 91.82 159.28 92.915 C159.263 96.319 159.226 99.722 159.188 103.125 C159.172 105.428 159.159 107.732 159.146 110.035 C159.113 115.69 159.063 121.345 159 127 C153.195 125.289 147.901 122.678 142.473 120.047 C141.396 119.527 140.319 119.008 139.21 118.473 C123.705 110.959 108.314 103.213 92.912 95.491 C88.772 93.415 84.631 91.343 80.49 89.27 C73.711 85.875 66.932 82.48 60.155 79.083 C56.624 77.313 53.093 75.546 49.559 73.782 C49.197 73.602 49.197 73.602 47.364 72.686 C45.991 72.001 44.618 71.316 43.245 70.631 C38.624 68.324 34.046 65.949 29.5 63.5 C23.785 60.45 18.041 57.466 12.25 54.562 C11.922 54.397 11.922 54.397 10.264 53.562 C6.877 51.875 3.523 50.409 0 49 C0 32.83 0 16.66 0 0 Z " fill="#3D6A9F" transform="translate(457.0,277.0)"/>
  <path d="M0 0 C4.66 0.932 8.167 2.41 12.312 4.562 C13.579 5.21 14.846 5.857 16.113 6.504 C16.817 6.865 17.52 7.226 18.245 7.597 C21.47 9.24 24.706 10.86 27.944 12.477 C28.636 12.823 29.328 13.169 30.041 13.525 C36.706 16.855 43.375 20.179 50.044 23.501 C58.273 27.601 66.499 31.705 74.725 35.811 C80.217 38.551 85.709 41.291 91.204 44.026 C96.58 46.703 101.954 49.384 107.326 52.068 C109.345 53.076 111.364 54.082 113.384 55.086 C124.057 60.395 134.666 65.809 145.162 71.462 C146.09 71.957 147.019 72.452 147.976 72.961 C156.552 77.63 156.552 77.63 159 81 C159.481 83.227 159.481 83.227 159.454 85.677 C159.454 86.597 159.453 87.518 159.453 88.467 C159.433 89.452 159.412 90.438 159.391 91.453 C159.385 92.468 159.379 93.484 159.373 94.53 C159.351 97.77 159.301 101.01 159.25 104.25 C159.23 106.448 159.212 108.646 159.195 110.844 C159.151 116.23 159.084 121.615 159 127 C153.537 125.385 148.643 122.956 143.577 120.402 C142.646 119.936 141.715 119.471 140.755 118.992 C137.681 117.454 134.61 115.911 131.539 114.367 C129.389 113.29 127.239 112.214 125.088 111.137 C119.421 108.3 113.756 105.458 108.092 102.614 C102.379 99.748 96.664 96.886 90.949 94.023 C82.537 89.81 74.127 85.593 65.717 81.375 C59.163 78.086 52.607 74.8 46.048 71.52 C45.436 71.214 44.823 70.907 44.192 70.592 C39.945 68.469 35.692 66.358 31.438 64.25 C20.876 58.994 10.45 53.474 0 48 C0 32.16 0 16.32 0 0 Z " fill="#3D6A9E" transform="translate(457.0,359.0)"/>
  <path d="M0 0 C0 15.84 0 31.68 0 48 C-10.125 53.625 -10.125 53.625 -13.923 55.522 C-14.355 55.738 -14.355 55.738 -16.542 56.833 C-17.457 57.289 -18.372 57.745 -19.315 58.214 C-20.305 58.709 -21.295 59.204 -22.315 59.714 C-25.564 61.339 -28.815 62.96 -32.066 64.582 C-34.347 65.721 -36.628 66.861 -38.908 68.001 C-44.292 70.691 -49.678 73.38 -55.063 76.068 C-61.134 79.097 -67.203 82.129 -73.272 85.161 C-82.774 89.908 -92.276 94.654 -101.78 99.398 C-108.528 102.767 -115.277 106.136 -122.024 109.509 C-123.204 110.098 -124.384 110.688 -125.6 111.296 C-128.683 112.841 -131.762 114.392 -134.84 115.946 C-137.246 117.161 -139.653 118.373 -142.06 119.585 C-143.296 120.208 -144.531 120.832 -145.765 121.458 C-147.589 122.382 -149.415 123.301 -151.242 124.219 C-152.303 124.754 -153.364 125.29 -154.457 125.842 C-157 127 -157 127 -159 127 C-159 111.16 -159 95.32 -159 79 C-136.99 67.416 -136.99 67.416 -126.137 61.999 C-125.745 61.803 -125.745 61.803 -123.756 60.81 C-122.95 60.407 -122.143 60.005 -121.312 59.59 C-119.591 58.729 -117.871 57.868 -116.15 57.007 C-112.577 55.22 -109.004 53.435 -105.431 51.65 C-100.908 49.392 -96.388 47.13 -91.868 44.867 C-88.325 43.094 -84.781 41.323 -81.237 39.552 C-79.573 38.72 -77.908 37.887 -76.244 37.054 C-66.721 32.287 -57.163 27.611 -47.524 23.085 C-40.619 19.84 -33.797 16.44 -26.987 13.001 C-23.496 11.242 -19.997 9.497 -16.5 7.75 C-15.24 7.12 -13.979 6.49 -12.719 5.859 C-12.418 5.71 -12.418 5.71 -10.898 4.951 C-9.527 4.264 -8.157 3.572 -6.789 2.877 C-6.065 2.51 -5.34 2.143 -4.594 1.766 C-3.931 1.428 -3.267 1.091 -2.584 0.743 C-1 0 -1 0 0 0 Z " fill="#2E5682" transform="translate(935.0,277.0)"/>
  <path d="M0 0 C0 15.84 0 31.68 0 48 C-19.153 58.032 -38.441 67.761 -57.803 77.383 C-68.053 82.483 -78.255 87.648 -88.346 93.058 C-98.177 98.317 -108.231 103.12 -118.312 107.875 C-126.936 111.945 -135.393 116.277 -143.801 120.773 C-145.2 121.517 -146.6 122.259 -148 123 C-148.73 123.388 -149.46 123.777 -150.212 124.177 C-150.92 124.544 -151.627 124.911 -152.355 125.289 C-152.985 125.619 -153.614 125.948 -154.262 126.288 C-156 127 -156 127 -159 127 C-159.127 120.522 -159.214 114.045 -159.275 107.566 C-159.3 105.363 -159.334 103.159 -159.377 100.955 C-159.438 97.788 -159.466 94.621 -159.488 91.453 C-159.514 90.468 -159.54 89.482 -159.566 88.467 C-159.569 81.617 -159.569 81.617 -156.655 78.456 C-155.779 77.976 -154.903 77.495 -154 77 C-153.023 76.421 -152.046 75.842 -151.039 75.246 C-141.341 70.109 -131.48 65.359 -121.566 60.652 C-111.723 55.974 -102.011 51.066 -92.362 45.999 C-79.178 39.081 -65.89 32.386 -52.562 25.75 C-50.49 24.716 -48.418 23.682 -46.346 22.648 C-42.372 20.666 -38.397 18.684 -34.423 16.703 C-29.601 14.3 -24.78 11.894 -19.961 9.484 C-19.346 9.177 -18.732 8.87 -18.099 8.554 C-13.112 6.06 -8.135 3.549 -3.16 1.031 C-1 0 -1 0 0 0 Z " fill="#2E5580" transform="translate(935.0,358.0)"/>
  <path d="M0 0 C6.69 2.676 12.9 5.358 19.188 8.75 C20.01 9.188 20.832 9.625 21.68 10.076 C25.427 12.072 29.164 14.087 32.895 16.113 C40.384 20.169 47.969 23.909 55.687 27.513 C62.02 30.489 68.206 33.691 74.377 36.986 C81.234 40.632 88.17 44.107 95.125 47.562 C103.193 51.573 111.211 55.648 119.155 59.899 C126.364 63.749 133.678 67.367 141 71 C146.94 73.97 152.88 76.94 159 80 C159 95.84 159 111.68 159 128 C152.266 125.755 152.266 125.755 148.93 123.953 C148.138 123.531 147.346 123.11 146.53 122.675 C146.092 122.44 146.092 122.44 143.875 121.25 C130.093 113.949 116.12 107.032 102.152 100.095 C93.717 95.9 85.31 91.669 76.992 87.246 C68.981 82.991 60.89 78.904 52.773 74.855 C52.149 74.544 51.525 74.233 50.882 73.912 C46.381 71.667 41.878 69.427 37.375 67.188 C32.829 64.927 28.284 62.664 23.741 60.398 C21.953 59.508 20.164 58.62 18.375 57.731 C17.276 57.184 16.177 56.636 15.044 56.071 C14.091 55.597 13.138 55.123 12.156 54.635 C8.057 52.512 4.035 50.242 0 48 C0 32.16 0 16.32 0 0 Z " fill="#3D6A9E" transform="translate(457.0,439.0)"/>
  <path d="M0 0 C0.305 6.564 0.515 13.126 0.659 19.696 C0.719 21.929 0.801 24.161 0.905 26.391 C1.748 44.919 1.748 44.919 -2.452 49.92 C-5.596 51.77 -8.521 52.929 -12 54 C-13.385 54.687 -14.758 55.4 -16.109 56.152 C-17.321 56.752 -18.534 57.347 -19.75 57.938 C-21.126 58.617 -22.503 59.297 -23.879 59.977 C-24.222 60.145 -24.222 60.145 -25.958 60.997 C-29.206 62.592 -32.448 64.199 -35.688 65.812 C-36.012 65.974 -36.012 65.974 -37.654 66.791 C-43.25 69.592 -48.78 72.512 -54.312 75.438 C-61.013 78.977 -67.756 82.363 -74.625 85.562 C-83.409 89.657 -91.968 94.115 -100.517 98.678 C-104.898 101.011 -109.292 103.319 -113.688 105.625 C-114.571 106.089 -115.455 106.552 -116.366 107.03 C-122.26 110.114 -128.189 113.12 -134.154 116.065 C-140.037 118.983 -145.826 122.07 -151.595 125.208 C-156.785 128 -156.785 128 -159 128 C-159 112.16 -159 96.32 -159 80 C-139.799 69.835 -139.799 69.835 -130.75 65.355 C-124.559 62.286 -118.371 59.21 -112.188 56.125 C-111.579 55.822 -110.971 55.518 -110.344 55.206 C-102.09 51.085 -93.871 46.905 -85.739 42.547 C-79.082 38.991 -72.322 35.643 -65.566 32.279 C-60.513 29.76 -55.464 27.233 -50.414 24.707 C-48.142 23.571 -45.87 22.435 -43.598 21.299 C-42.452 20.726 -41.306 20.153 -40.125 19.563 C-16.655 7.827 -16.655 7.827 -13.799 6.401 C-11.89 5.446 -9.984 4.486 -8.08 3.522 C-7.171 3.063 -6.262 2.604 -5.326 2.132 C-4.516 1.721 -3.705 1.31 -2.871 0.887 C-1 0 -1 0 0 0 Z " fill="#2E5580" transform="translate(935.0,439.0)"/>
  <path d="M0 0 C1.007 0.01 2.015 0.02 3.052 0.031 C21.592 0.416 36.597 8.111 52.594 16.715 C58.883 20.04 65.262 23.193 71.625 26.375 C71.625 41.555 71.625 56.735 71.625 72.375 C67.272 71.504 65.224 70.784 61.562 68.609 C60.607 68.051 59.652 67.493 58.667 66.917 C57.663 66.326 56.659 65.734 55.625 65.125 C38.266 55.119 22.217 49.734 2.062 49.875 C1.31 49.879 0.557 49.883 -0.218 49.886 C-24.348 50.087 -41.203 58.037 -62.046 69.895 C-62.853 70.352 -63.66 70.81 -64.492 71.281 C-64.845 71.484 -64.845 71.484 -66.628 72.51 C-68.375 73.375 -68.375 73.375 -70.375 73.375 C-70.578 66.916 -70.718 60.458 -70.814 53.996 C-70.855 51.799 -70.909 49.602 -70.979 47.406 C-71.076 44.245 -71.121 41.087 -71.156 37.926 C-71.198 36.945 -71.239 35.965 -71.281 34.955 C-71.286 28.298 -71.286 28.298 -68.733 25.712 C-66.667 24.394 -64.616 23.361 -62.375 22.375 C-61.904 22.118 -61.904 22.118 -59.518 20.817 C-58.656 20.385 -57.794 19.953 -56.906 19.508 C-55.931 19.018 -54.955 18.528 -53.95 18.023 C-52.935 17.521 -51.92 17.018 -50.875 16.5 C-50.346 16.237 -50.346 16.237 -47.669 14.908 C-16.936 -0.249 -16.936 -0.249 0 0 Z " fill="#D22641" transform="translate(695.4,330.6)"/>
  <path d="M0 0 C5.842 3.182 11.646 5.812 17.757 8.59 C17.757 24.1 17.757 39.61 17.757 55.59 C1.757 47.59 1.757 47.59 -5.93 43.34 C-12.549 39.791 -18.99 37.462 -26.243 35.59 C-26.708 35.441 -26.708 35.441 -29.063 34.688 C-55.959 26.906 -84.087 34.777 -107.743 47.777 C-110.452 49.294 -113.161 50.81 -115.862 52.341 C-118.271 53.605 -120.701 54.624 -123.243 55.59 C-124.243 54.59 -124.243 54.59 -124.363 52.761 C-124.362 52.363 -124.362 52.363 -124.356 50.345 C-124.356 49.445 -124.356 48.544 -124.356 47.616 C-124.351 46.636 -124.346 45.657 -124.34 44.648 C-124.339 43.651 -124.338 42.654 -124.336 41.626 C-124.33 38.426 -124.318 35.227 -124.305 32.027 C-124.3 29.864 -124.296 27.701 -124.292 25.537 C-124.28 20.221 -124.264 14.906 -124.243 9.59 C-83.39 -12.054 -83.39 -12.054 -68.243 -15.41 C-67.617 -15.584 -66.991 -15.757 -66.347 -15.936 C-42.749 -21.251 -20.142 -10.981 0 0 Z " fill="#D22641" transform="translate(749.2,511.4)"/>
  <path d="M0 0 C1 1 1 1 1.12 2.791 C1.118 3.57 1.116 4.35 1.114 5.153 C1.113 6.033 1.113 6.914 1.113 7.822 C1.108 8.779 1.103 9.736 1.098 10.723 C1.097 11.21 1.097 11.21 1.093 13.678 C1.088 16.806 1.075 19.934 1.062 23.062 C1.057 25.178 1.053 27.293 1.049 29.408 C1.038 34.605 1.021 39.803 1 45 C-2.223 44.451 -4.849 43.751 -7.715 42.18 C-8.394 41.813 -9.072 41.445 -9.771 41.067 C-10.129 40.87 -10.129 40.87 -11.938 39.875 C-13.467 39.055 -14.997 38.236 -16.527 37.418 C-18.652 36.274 -20.773 35.126 -22.883 33.956 C-37.842 25.666 -52.837 23.212 -69.75 23.375 C-70.532 23.378 -71.313 23.382 -72.119 23.385 C-92.441 23.534 -108.565 28.659 -126 39 C-126.608 39.359 -127.216 39.717 -127.842 40.087 C-130.466 41.636 -133.083 43.191 -135.68 44.785 C-138 46 -138 46 -141 46 C-141 30.82 -141 15.64 -141 0 C-135.72 -2.64 -130.44 -5.28 -125 -8 C-123.94 -8.539 -123.94 -8.539 -118.574 -11.266 C-118.083 -11.514 -118.083 -11.514 -115.6 -12.773 C-113.636 -13.769 -111.675 -14.769 -109.717 -15.773 C-103.289 -19.019 -96.852 -21.776 -90 -24 C-89.659 -24.111 -89.659 -24.111 -87.936 -24.673 C-56.781 -33.644 -25.735 -15.359 0 0 Z " fill="#D22642" transform="translate(766.0,439.0)"/>
  <path d="M0 0 C2.365 1.049 4.682 2.15 6.984 3.332 C7.876 3.787 8.768 4.242 9.688 4.711 C10.025 4.886 10.025 4.886 11.734 5.77 C8.995 9.079 5.336 10.633 1.547 12.457 C0.085 13.174 -1.378 13.892 -2.84 14.609 C-3.583 14.971 -4.326 15.334 -5.091 15.707 C-8.327 17.289 -11.546 18.904 -14.766 20.52 C-19.511 22.896 -24.259 25.264 -29.012 27.625 C-48.487 37.313 -48.487 37.313 -58.035 42.476 C-62.508 44.884 -67.041 47.165 -71.588 49.429 C-77.646 52.451 -83.688 55.502 -89.718 58.579 C-95.206 61.379 -100.701 64.164 -106.199 66.943 C-109.869 68.8 -113.536 70.662 -117.197 72.537 C-120.788 74.376 -124.386 76.199 -127.99 78.011 C-129.348 78.698 -130.704 79.39 -132.056 80.088 C-145.467 87.001 -145.467 87.001 -152.266 85.77 C-155.114 84.759 -157.707 83.449 -160.359 82.008 C-161.109 81.62 -161.859 81.232 -162.631 80.833 C-165.018 79.598 -167.392 78.342 -169.766 77.082 C-181.071 71.097 -191.872 66.091 -204.266 62.77 C-205.19 62.52 -206.114 62.271 -207.067 62.013 C-233.695 55.276 -259.842 68.832 -282.586 81.094 C-283.296 81.468 -284.007 81.843 -284.739 82.229 C-286.092 82.944 -287.439 83.673 -288.775 84.419 C-293.476 86.881 -296.153 86.908 -301.266 85.77 C-304.431 84.508 -307.439 82.986 -310.469 81.43 C-310.907 81.209 -310.907 81.209 -313.127 80.093 C-315.928 78.682 -318.722 77.257 -321.516 75.832 C-323.346 74.909 -325.177 73.986 -327.008 73.064 C-336.554 68.248 -346.04 63.326 -355.491 58.326 C-362.341 54.71 -369.253 51.231 -376.195 47.795 C-379.957 45.932 -383.715 44.057 -387.473 42.184 C-388.253 41.795 -389.033 41.406 -389.837 41.006 C-403.735 34.079 -417.622 27.153 -431.328 19.852 C-435.568 17.597 -439.847 15.422 -444.141 13.27 C-444.79 12.943 -445.44 12.615 -446.109 12.279 C-449.442 10.617 -452.784 9.093 -456.266 7.77 C-456.266 7.11 -456.266 6.45 -456.266 5.77 C-454.589 4.894 -452.899 4.045 -451.203 3.207 C-450.263 2.731 -449.324 2.256 -448.355 1.766 C-443.276 0.128 -439.252 1.126 -434.602 3.484 C-433.276 4.216 -431.956 4.958 -430.641 5.707 C-424.155 9.275 -417.596 12.573 -410.891 15.707 C-404.37 18.772 -397.932 21.933 -391.578 25.332 C-382.495 30.188 -373.294 34.798 -364.078 39.395 C-363.722 39.572 -363.722 39.572 -361.917 40.472 C-356.354 43.245 -350.791 46.017 -345.225 48.784 C-338.572 52.09 -331.929 55.409 -325.342 58.847 C-322.775 60.186 -320.201 61.512 -317.626 62.837 C-316.325 63.51 -315.027 64.19 -313.732 64.876 C-311.813 65.89 -309.883 66.88 -307.949 67.867 C-307.39 68.159 -307.39 68.159 -304.56 69.633 C-299.464 71.391 -295.754 70.398 -290.891 68.344 C-289.677 67.725 -288.469 67.095 -287.266 66.457 C-286.59 66.113 -285.914 65.769 -285.218 65.415 C-281.045 63.277 -276.939 61.036 -272.848 58.746 C-246.752 44.306 -220.741 40.688 -191.809 48.73 C-183.111 51.533 -175.458 55.796 -167.562 60.328 C-162.243 63.38 -156.783 66.092 -151.266 68.77 C-150.945 68.971 -150.945 68.971 -149.32 69.988 C-145.902 71.288 -142.786 70.386 -139.45 69.033 C-137.4 68.067 -135.382 67.053 -133.367 66.016 C-132.615 65.636 -131.862 65.257 -131.087 64.867 C-128.684 63.654 -126.287 62.431 -123.891 61.207 C-122.319 60.411 -120.748 59.616 -119.176 58.822 C-116.055 57.245 -112.936 55.663 -109.819 54.078 C-105.497 51.882 -101.16 49.716 -96.82 47.555 C-90.429 44.368 -84.086 41.097 -77.766 37.77 C-69.311 33.339 -60.821 29.003 -52.269 24.764 C-44.137 20.729 -36.013 16.677 -27.938 12.528 C-25.164 11.104 -22.385 9.689 -19.606 8.275 C-18.189 7.551 -16.774 6.823 -15.36 6.091 C-13.277 5.013 -11.186 3.95 -9.094 2.891 C-8.465 2.561 -7.836 2.231 -7.187 1.89 C-2.833 -0.288 -2.833 -0.288 0 0 Z " fill="#325D8C" transform="translate(918.3,425.2)"/>
  <path d="M0 0 C2.71 1.256 5.365 2.594 8 4 C8 4.99 8 5.98 8 7 C7.282 7.341 6.563 7.683 5.823 8.035 C-7.485 14.371 -20.713 20.789 -33.719 27.73 C-39.774 30.959 -45.921 33.997 -52.07 37.041 C-53.988 37.994 -55.901 38.956 -57.812 39.922 C-65.264 43.681 -72.763 47.317 -80.312 50.875 C-87.132 54.093 -93.85 57.444 -100.5 61 C-108.014 65.017 -115.63 68.754 -123.344 72.371 C-127.475 74.311 -131.582 76.275 -135.637 78.371 C-136.356 78.742 -137.075 79.112 -137.816 79.494 C-139.137 80.179 -140.453 80.873 -141.764 81.577 C-145.865 83.7 -149.369 84.891 -154 85 C-156.589 84.039 -158.686 83.082 -161.062 81.75 C-162.468 81.008 -163.875 80.268 -165.281 79.527 C-165.658 79.325 -165.658 79.325 -167.566 78.3 C-180.35 71.47 -192.987 64.89 -207 61 C-207.594 60.823 -208.188 60.645 -208.8 60.462 C-213.912 59.388 -219.299 59.771 -224.5 59.75 C-225.717 59.729 -226.934 59.709 -228.188 59.688 C-240.316 59.636 -250.258 62.17 -261.062 67.562 C-261.952 67.995 -262.842 68.428 -263.759 68.873 C-270.767 72.308 -277.684 75.922 -284.52 79.688 C-286.657 80.846 -288.812 81.94 -291 83 C-291.363 83.181 -291.363 83.181 -293.2 84.097 C-296.428 85.47 -298.805 86.268 -302.285 85.489 C-304.898 84.415 -307.331 83.163 -309.812 81.812 C-310.771 81.323 -311.729 80.833 -312.717 80.329 C-314.901 79.212 -317.08 78.084 -319.253 76.945 C-323.456 74.751 -327.699 72.64 -331.945 70.531 C-333.528 69.745 -335.11 68.959 -336.692 68.173 C-337.48 67.781 -338.267 67.39 -339.079 66.987 C-343.576 64.748 -348.063 62.492 -352.552 60.236 C-356.128 58.44 -359.705 56.647 -363.288 54.863 C-370.735 51.153 -378.147 47.394 -385.5 43.5 C-393.448 39.317 -401.438 35.237 -409.486 31.249 C-414.495 28.76 -419.496 26.254 -424.499 23.751 C-427.486 22.257 -430.473 20.763 -433.461 19.27 C-434.572 18.714 -435.683 18.158 -436.828 17.585 C-438.849 16.575 -440.871 15.567 -442.895 14.561 C-447.017 12.511 -451.115 10.451 -455.125 8.188 C-455.498 7.978 -455.498 7.978 -457.383 6.918 C-457.916 6.615 -458.45 6.312 -459 6 C-455.431 2.252 -452.011 0.187 -446.762 -0.301 C-442.415 0.047 -439.318 1.451 -435.562 3.5 C-434.147 4.24 -432.732 4.98 -431.316 5.719 C-430.6 6.099 -429.883 6.479 -429.145 6.871 C-426.481 8.273 -423.792 9.621 -421.095 10.959 C-419.128 11.936 -417.164 12.917 -415.2 13.9 C-412.625 15.188 -410.05 16.474 -407.474 17.758 C-399.002 21.983 -390.551 26.247 -382.108 30.529 C-374.082 34.598 -366.048 38.653 -358.011 42.702 C-352.63 45.413 -347.252 48.131 -341.88 50.862 C-336.643 53.524 -331.398 56.17 -326.147 58.806 C-324.156 59.809 -322.168 60.817 -320.183 61.831 C-317.42 63.242 -314.648 64.632 -311.873 66.018 C-311.059 66.439 -310.245 66.86 -309.407 67.294 C-304.868 69.531 -302.052 70.596 -297 69 C-294.657 67.984 -292.443 66.931 -290.188 65.75 C-289.852 65.58 -289.852 65.58 -288.152 64.718 C-283.715 62.454 -279.332 60.099 -274.957 57.719 C-263.452 51.51 -252.974 46.151 -240 44 C-239.623 43.908 -239.623 43.908 -237.715 43.441 C-217.982 40.233 -197.328 44.181 -179.926 53.738 C-178.961 54.267 -177.997 54.797 -177.003 55.342 C-174.095 56.948 -171.191 58.56 -168.289 60.176 C-167.354 60.693 -166.42 61.211 -165.457 61.744 C-163.543 62.804 -161.631 63.869 -159.723 64.939 C-158.796 65.451 -157.869 65.962 -156.914 66.488 C-156.089 66.948 -155.263 67.407 -154.413 67.88 C-150.91 69.506 -148.324 70.429 -144.555 69.208 C-143.696 68.775 -142.836 68.342 -141.951 67.896 C-140.957 67.404 -139.964 66.912 -138.94 66.406 C-137.861 65.854 -136.782 65.301 -135.671 64.733 C-135.098 64.447 -135.098 64.447 -132.2 62.999 C-129.056 61.428 -125.922 59.84 -122.788 58.249 C-119.494 56.58 -116.191 54.927 -112.889 53.271 C-106.62 50.126 -100.358 46.966 -94.099 43.801 C-87.038 40.232 -79.97 36.679 -72.901 33.127 C-61.847 27.572 -50.797 22.007 -39.753 16.432 C-30.179 11.599 -20.597 6.785 -11 2 C-9.922 1.435 -8.844 0.871 -7.733 0.289 C-4.412 -1.277 -3.425 -1.223 0 0 Z " fill="#325C8A" transform="translate(921.0,345.0)"/>
  <path d="M0 0 C0 0.66 0 1.32 0 2 C-4.95 4.31 -9.9 6.62 -15 9 C-15.33 23.19 -15.66 37.38 -16 52 C-15.01 51.835 -15.01 51.835 -10 51 C-12.657 53.183 -14.656 54.276 -18 55 C-18.203 48.541 -18.343 42.083 -18.439 35.621 C-18.48 33.424 -18.534 31.227 -18.604 29.031 C-18.701 25.87 -18.746 22.712 -18.781 19.551 C-18.823 18.57 -18.864 17.59 -18.906 16.58 C-18.908 13.83 -18.831 11.624 -18 9 C-15.607 6.65 -13.053 5.331 -10 4 C-9.188 3.55 -8.376 3.1 -7.539 2.637 C-2.222 0 -2.222 0 0 0 Z " fill="#A63147" transform="translate(643.0,349.0)"/>
  <path d="M0 0 C0.165 0.33 0.165 0.33 1 2 C-0.48 1.86 -1.959 1.712 -3.438 1.562 C-4.261 1.481 -5.085 1.4 -5.934 1.316 C-8 1 -8 1 -9 0 C-26.039 -3.032 -44.293 -3.85 -61.137 0.441 C-64.002 1 -65.28 0.799 -68 0 C-65.271 -0.647 -62.542 -1.293 -59.812 -1.938 C-59.044 -2.12 -58.275 -2.302 -57.482 -2.49 C-56.732 -2.667 -55.981 -2.845 -55.207 -3.027 C-54.521 -3.19 -53.835 -3.352 -53.128 -3.519 C-36.425 -7.292 -15.971 -6.663 0 0 Z " fill="#320F25" transform="translate(731.0,548.0)"/>
  <path d="M0 0 C0 0.66 0 1.32 0 2 C-0.402 2.32 -0.402 2.32 -2.438 3.938 C-5 6 -5 6 -6 9 C-6.121 11.78 -6.188 14.535 -6.203 17.316 C-6.209 18.129 -6.215 18.941 -6.22 19.778 C-6.23 21.493 -6.236 23.209 -6.24 24.925 C-6.25 27.556 -6.281 30.187 -6.312 32.818 C-6.319 34.484 -6.324 36.15 -6.328 37.816 C-6.34 38.606 -6.353 39.396 -6.366 40.209 C-6.356 42.424 -6.356 42.424 -6 46 C-5.01 46.66 -4.02 47.32 -3 48 C-4.65 48.66 -6.3 49.32 -8 50 C-9 49 -9 49 -9.12 47.171 C-9.118 46.374 -9.116 45.577 -9.114 44.756 C-9.113 43.855 -9.113 42.954 -9.113 42.026 C-9.108 41.047 -9.103 40.067 -9.098 39.059 C-9.096 38.061 -9.095 37.064 -9.093 36.036 C-9.088 32.837 -9.075 29.637 -9.062 26.438 C-9.057 24.274 -9.053 22.111 -9.049 19.947 C-9.038 14.631 -9.021 9.316 -9 4 C-2.25 0 -2.25 0 0 0 Z " fill="#A73245" transform="translate(634.0,517.0)"/>
  <path d="M0 0 C0.677 -0.001 1.353 -0.002 2.051 -0.003 C3.48 -0.004 4.908 -0.002 6.337 0.002 C8.523 0.008 10.709 0.002 12.895 -0.004 C14.284 -0.003 15.673 -0.002 17.062 0 C18.326 0.001 19.59 0.002 20.893 0.003 C24.031 0.133 24.031 0.133 27.031 1.133 C27.031 1.793 27.031 2.453 27.031 3.133 C25.948 2.976 24.866 2.818 23.75 2.656 C1.514 -0.089 -15.377 3.958 -35.141 13.917 C-35.57 14.132 -35.57 14.132 -37.742 15.219 C-38.126 15.415 -38.126 15.415 -40.068 16.408 C-40.695 16.647 -41.322 16.886 -41.969 17.133 C-42.629 16.803 -43.289 16.473 -43.969 16.133 C-42.454 13.103 -40.115 12.762 -37.031 11.508 C-36.49 11.285 -36.49 11.285 -33.754 10.156 C-30.969 9.133 -30.969 9.133 -28.969 9.133 C-28.813 8.518 -28.657 7.903 -28.496 7.27 C-26.038 3.831 -22.528 3.728 -18.531 2.945 C-16.991 2.619 -15.45 2.293 -13.91 1.965 C-13.568 1.896 -13.568 1.896 -11.838 1.55 C-7.634 0.612 -4.386 0.004 0 0 Z " fill="#2D0D21" transform="translate(689.0,411.9)"/>
  <path d="M0 0 C0.66 0.33 1.32 0.66 2 1 C0.02 1.99 -1.96 2.98 -4 4 C-4.33 17.86 -4.66 31.72 -5 46 C-3.68 46.33 -2.36 46.66 -1 47 C-4 49 -4 49 -7 49 C-7 33.82 -7 18.64 -7 3 C-4.69 2.01 -2.38 1.02 0 0 Z " fill="#A43146" transform="translate(632.0,436.0)"/>
  <path d="M0 0 C0.867 0.005 1.733 0.011 2.626 0.016 C21.29 0.29 21.29 0.29 25.25 4.25 C22.791 4.109 20.333 3.963 17.875 3.812 C17.176 3.773 16.478 3.734 15.758 3.693 C10.477 3.363 10.477 3.363 8.25 2.25 C-0.904 1.733 -9.213 1.594 -17.75 5.25 C-18.369 5.425 -18.369 5.425 -21.5 6.312 C-24.75 7.25 -24.75 7.25 -27.375 8.375 C-29.984 9.336 -31.992 9.408 -34.75 9.25 C-32.142 6.642 -29.663 5.98 -26.188 4.75 C-25.011 4.327 -23.834 3.904 -22.621 3.469 C-15.053 0.988 -7.962 -0.088 0 0 Z " fill="#B3324A" transform="translate(694.8,494.8)"/>
  <path d="M0 0 C0.725 -0.005 1.451 -0.01 2.198 -0.016 C3.733 -0.022 5.267 -0.021 6.802 -0.012 C9.12 -0.004 11.436 -0.033 13.754 -0.064 C21.782 -0.102 29.498 0.007 36.523 4.434 C36.688 4.764 36.688 4.764 37.523 6.434 C36.491 6.145 35.458 5.856 34.395 5.559 C19.27 1.619 3.986 1.196 -11.477 3.434 C-7.957 0.052 -4.649 -0.02 0 0 Z " fill="#351024" transform="translate(687.5,329.6)"/>
  <path d="M0 0 C-0.33 0.99 -0.66 1.98 -1 3 C-3.074 4.027 -3.074 4.027 -5.688 4.938 C-9.918 6.51 -13.251 8.474 -17 11 C-19.04 11.829 -21.098 12.553 -23.18 13.27 C-25 14 -25 14 -27.25 15.75 C-27.827 16.163 -28.405 16.575 -29 17 C-31.109 16.578 -31.109 16.578 -33 16 C-2.785 0 -2.785 0 0 0 Z " fill="#AB3247" transform="translate(667.0,419.0)"/>
  <path d="M0 0 C7.222 -0.107 13.096 1.556 19.625 4.438 C20.336 4.75 21.047 5.063 21.779 5.385 C26.86 7.72 26.86 7.72 28 10 C25.023 9.297 22.147 8.418 19.25 7.438 C18.451 7.168 17.652 6.899 16.828 6.621 C16.225 6.416 15.622 6.211 15 6 C15 5.34 15 4.68 15 4 C14.196 4.021 13.391 4.041 12.562 4.062 C10 4 10 4 9 3 C7.488 2.609 5.965 2.26 4.438 1.938 C3.611 1.761 2.785 1.584 1.934 1.402 C1.296 1.27 0.657 1.137 0 1 C0 0.67 0 0.34 0 0 Z " fill="#B93449" transform="translate(707.0,332.0)"/>
  <path d="M0 0 C2.97 0 5.94 0 9 0 C9.33 0.66 9.66 1.32 10 2 C11.114 2.474 12.227 2.949 13.375 3.438 C16.56 4.81 17.787 5.563 20 8 C13.28 5.81 6.633 3.442 0 1 C0 0.67 0 0.34 0 0 Z " fill="#351024" transform="translate(716.0,415.0)"/>
  <path d="M0 0 C-2.581 1.317 -5.165 2.629 -7.75 3.938 C-8.48 4.311 -9.209 4.684 -9.961 5.068 C-10.67 5.426 -11.379 5.784 -12.109 6.152 C-12.434 6.317 -12.434 6.317 -14.077 7.152 C-16.033 8.015 -17.915 8.544 -20 9 C-17.198 4.798 -13.784 4.063 -9 3 C-9 2.34 -9 1.68 -9 1 C-3.375 -1.125 -3.375 -1.125 0 0 Z " fill="#280D21" transform="translate(645.0,430.0)"/>
  <path d="M0 0 C5.026 0.537 8.622 2.944 12.812 5.562 C13.505 5.987 14.198 6.412 14.912 6.85 C16.612 7.893 18.307 8.946 20 10 C19.67 10.165 19.67 10.165 18 11 C16.121 10.196 16.121 10.196 13.867 8.91 C13.062 8.456 12.256 8.001 11.426 7.533 C10.584 7.048 9.742 6.563 8.875 6.062 C8.026 5.581 7.176 5.1 6.301 4.604 C4.196 3.409 2.096 2.208 0 1 C0 0.67 0 0.34 0 0 Z " fill="#AD304C" transform="translate(741.0,389.0)"/>
  <path d="M0 0 C-1.204 2.494 -2.454 4.681 -4 7 C-4.825 6.67 -4.825 6.67 -9 5 C-6.455 2.201 -3.924 0 0 0 Z " fill="#E2E4E7" transform="translate(938.0,415.0)"/>
  <path d="M0 0 C-0.687 0.266 -1.374 0.531 -2.082 0.805 C-2.533 0.981 -2.533 0.981 -4.812 1.875 C-5.706 2.223 -6.599 2.571 -7.52 2.93 C-10 4 -10 4 -13 6 C-13.99 5.67 -14.98 5.34 -16 5 C-15.34 5 -14.68 5 -14 5 C-13.67 4.01 -13.34 3.02 -13 2 C-11.074 1.016 -11.074 1.016 -8.688 0.25 C-8.298 0.119 -8.298 0.119 -6.324 -0.547 C-3.831 -1.033 -2.382 -0.807 0 0 Z " fill="#2A0B1F" transform="translate(673.0,335.0)"/>
  <path d="M0 0 C9.595 2.706 9.595 2.706 13 7 C8.173 5.587 4.284 3.57 0 1 C0 0.67 0 0.34 0 0 Z " fill="#AB324E" transform="translate(751.0,476.0)"/>
  <path d="M0 0 C-2 2 -2 2 -4.602 2.195 C-5.599 2.172 -6.597 2.149 -7.625 2.125 C-8.126 2.116 -8.126 2.116 -10.664 2.07 C-11.435 2.047 -12.206 2.024 -13 2 C-8.244 -1.171 -5.588 -1.143 0 0 Z " fill="#D5DCDF" transform="translate(680.0,555.0)"/>
  <path d="M0 0 C-0.711 1.922 -0.711 1.922 -2 4 C-4.164 4.828 -4.164 4.828 -6.625 5.25 C-7.034 5.325 -7.034 5.325 -9.102 5.703 C-9.728 5.801 -10.355 5.899 -11 6 C-9.731 3.462 -8.584 3.106 -6.062 1.875 C-5.352 1.522 -4.642 1.169 -3.91 0.805 C-2 0 -2 0 0 0 Z " fill="#230E22" transform="translate(657.0,388.0)"/>
  <path d="M0 0 C0 0.33 0 0.66 0 1 C-4.537 2.452 -8.181 3.235 -13 3 C-9.217 -0.948 -5.079 -0.293 0 0 Z " fill="#AD344C" transform="translate(680.0,380.0)"/>
  <path d="M0 0 C0.99 0.33 1.98 0.66 3 1 C2.505 1.495 2.505 1.495 0 4 C0.33 4.66 0.66 5.32 1 6 C0.175 5.67 0.175 5.67 -4 4 C-2.68 2.68 -1.36 1.36 0 0 Z " fill="#D5D9DE" transform="translate(933.0,335.0)"/>
  <path d="M0 0 C0.598 0.206 1.196 0.412 1.812 0.625 C-0.809 2.779 -2.832 4.026 -6.188 4.625 C-5.031 1.155 -3.913 -0.671 0 0 Z " fill="#EFF4F4" transform="translate(630.2,179.4)"/>
  <path d="M0 0 C3.344 0.557 6.033 1.352 9 3 C9 3.66 9 4.32 9 5 C5.225 3.909 2.53 3.092 0 0 Z " fill="#2D0F20" transform="translate(752.0,431.0)"/>
  <path d="M0 0 C0.99 0.33 1.98 0.66 3 1 C0.826 3.5 -0.73 4.436 -4 5 C-4.33 4.34 -4.66 3.68 -5 3 C-2.688 1.438 -2.688 1.438 0 0 Z " fill="#E1E9EA" transform="translate(639.0,570.0)"/>
  <path d="M0 0 C0.66 0.66 1.32 1.32 2 2 C-0.36 4.36 -1.779 4.491 -5 5 C-5.33 4.34 -5.66 3.68 -6 3 C-4.02 2.01 -2.04 1.02 0 0 Z " fill="#EAF0F2" transform="translate(858.0,535.0)"/>
  <path d="M0 0 C-1.485 0.495 -1.485 0.495 -9 3 C-9 2.01 -9 1.02 -9 0 C-5.324 -0.919 -3.836 -0.959 0 0 Z " fill="#230F22" transform="translate(667.0,501.0)"/>
</svg>